<svg width="76" height="73" viewBox="0 0 76 73" fill="none" xmlns="http://www.w3.org/2000/svg">
<ellipse cx="37.8839" cy="36.5" rx="37.5907" ry="36.5" fill="#B1060F" fill-opacity="0.51"/>
<path d="M47.0276 42.9999V34.9999C47.0272 34.6492 46.9332 34.3047 46.7549 34.0011C46.5765 33.6974 46.3202 33.4453 46.0116 33.2699L38.8999 29.2699C38.591 29.0944 38.2406 29.002 37.8839 29.002C37.5272 29.002 37.1768 29.0944 36.868 29.2699L29.7562 33.2699C29.4476 33.4453 29.1913 33.6974 29.013 34.0011C28.8347 34.3047 28.7406 34.6492 28.7402 34.9999V42.9999C28.7406 43.3506 28.8347 43.6951 29.013 43.9987C29.1913 44.3024 29.4476 44.5545 29.7562 44.7299L36.868 48.7299C37.1768 48.9054 37.5272 48.9979 37.8839 48.9979C38.2406 48.9979 38.591 48.9054 38.8999 48.7299L46.0116 44.7299C46.3202 44.5545 46.5765 44.3024 46.7549 43.9987C46.9332 43.6951 47.0272 43.3506 47.0276 42.9999Z" stroke="#023DC4" stroke-width="2" stroke-linecap="round" stroke-linejoin="round"/>
<path d="M33.3121 31.21L37.8839 33.81L42.4558 31.21" stroke="#023DC4" stroke-width="2" stroke-linecap="round" stroke-linejoin="round"/>
<path d="M33.3121 46.79V41.6L28.7402 39" stroke="#023DC4" stroke-width="2" stroke-linecap="round" stroke-linejoin="round"/>
<path d="M47.0276 39L42.4557 41.6V46.79" stroke="#023DC4" stroke-width="2" stroke-linecap="round" stroke-linejoin="round"/>
<path d="M29.0145 33.96L37.8839 39.01L46.7533 33.96" stroke="#023DC4" stroke-width="2" stroke-linecap="round" stroke-linejoin="round"/>
<path d="M37.8839 49.08V39" stroke="#023DC4" stroke-width="2" stroke-linecap="round" stroke-linejoin="round"/>
</svg>
